<svg width="36" height="35" viewBox="0 0 36 35" fill="none" xmlns="http://www.w3.org/2000/svg">
<g clip-path="url(#clip0_3839_40443)">
<path d="M3.66699 10.2087C3.66699 9.43511 3.97428 8.69324 4.52126 8.14626C5.06824 7.59928 5.81011 7.29199 6.58366 7.29199H29.917C30.6905 7.29199 31.4324 7.59928 31.9794 8.14626C32.5264 8.69324 32.8337 9.43511 32.8337 10.2087V24.792C32.8337 25.5655 32.5264 26.3074 31.9794 26.8544C31.4324 27.4014 30.6905 27.7087 29.917 27.7087H6.58366C5.81011 27.7087 5.06824 27.4014 4.52126 26.8544C3.97428 26.3074 3.66699 25.5655 3.66699 24.792V10.2087Z" stroke="#B05B09" stroke-width="1.05" stroke-linecap="round" stroke-linejoin="round"/>
<path d="M13.875 17.5C13.875 18.6603 14.3359 19.7731 15.1564 20.5936C15.9769 21.4141 17.0897 21.875 18.25 21.875C19.4103 21.875 20.5231 21.4141 21.3436 20.5936C22.1641 19.7731 22.625 18.6603 22.625 17.5C22.625 16.3397 22.1641 15.2269 21.3436 14.4064C20.5231 13.5859 19.4103 13.125 18.25 13.125C17.0897 13.125 15.9769 13.5859 15.1564 14.4064C14.3359 15.2269 13.875 16.3397 13.875 17.5Z" stroke="#B05B09" stroke-width="1.05" stroke-linecap="round" stroke-linejoin="round"/>
<path d="M13.8753 17.5H3.66699" stroke="#B05B09" stroke-width="1.05" stroke-linecap="round" stroke-linejoin="round"/>
<path d="M22.625 17.5H32.8333" stroke="#B05B09" stroke-width="1.05" stroke-linecap="round" stroke-linejoin="round"/>
</g>
<defs>
<clipPath id="clip0_3839_40443">
<rect width="35" height="35" fill="white" transform="translate(0.75)"/>
</clipPath>
</defs>
</svg>
