<svg width="64" height="35" viewBox="0 0 64 35" fill="none" xmlns="http://www.w3.org/2000/svg">
<g clip-path="url(#clip0_3839_40421)">
<path d="M28.833 18.9587C28.833 19.7322 29.1403 20.4741 29.6873 21.0211C30.2343 21.568 30.9761 21.8753 31.7497 21.8753C32.5232 21.8753 33.2651 21.568 33.8121 21.0211C34.359 20.4741 34.6663 19.7322 34.6663 18.9587C34.6663 18.1851 34.359 17.4432 33.8121 16.8963C33.2651 16.3493 32.5232 16.042 31.7497 16.042C30.9761 16.042 30.2343 16.3493 29.6873 16.8963C29.1403 17.4432 28.833 18.1851 28.833 18.9587Z" stroke="#B05B09" stroke-width="1.05" stroke-linecap="round" stroke-linejoin="round"/>
<path d="M25.917 30.625V29.1667C25.917 28.3931 26.2243 27.6513 26.7713 27.1043C27.3182 26.5573 28.0601 26.25 28.8337 26.25H34.667C35.4405 26.25 36.1824 26.5573 36.7294 27.1043C37.2764 27.6513 37.5837 28.3931 37.5837 29.1667V30.625" stroke="#B05B09" stroke-width="1.05" stroke-linecap="round" stroke-linejoin="round"/>
<path d="M36.125 7.29167C36.125 8.06521 36.4323 8.80708 36.9793 9.35406C37.5263 9.90104 38.2681 10.2083 39.0417 10.2083C39.8152 10.2083 40.5571 9.90104 41.1041 9.35406C41.651 8.80708 41.9583 8.06521 41.9583 7.29167C41.9583 6.51812 41.651 5.77625 41.1041 5.22927C40.5571 4.68229 39.8152 4.375 39.0417 4.375C38.2681 4.375 37.5263 4.68229 36.9793 5.22927C36.4323 5.77625 36.125 6.51812 36.125 7.29167Z" stroke="#B05B09" stroke-width="1.05" stroke-linecap="round" stroke-linejoin="round"/>
<path d="M39.042 14.583H41.9587C42.7322 14.583 43.4741 14.8903 44.0211 15.4373C44.568 15.9843 44.8753 16.7261 44.8753 17.4997V18.958" stroke="#B05B09" stroke-width="1.05" stroke-linecap="round" stroke-linejoin="round"/>
<path d="M21.542 7.29167C21.542 8.06521 21.8493 8.80708 22.3963 9.35406C22.9432 9.90104 23.6851 10.2083 24.4587 10.2083C25.2322 10.2083 25.9741 9.90104 26.5211 9.35406C27.068 8.80708 27.3753 8.06521 27.3753 7.29167C27.3753 6.51812 27.068 5.77625 26.5211 5.22927C25.9741 4.68229 25.2322 4.375 24.4587 4.375C23.6851 4.375 22.9432 4.68229 22.3963 5.22927C21.8493 5.77625 21.542 6.51812 21.542 7.29167Z" stroke="#B05B09" stroke-width="1.05" stroke-linecap="round" stroke-linejoin="round"/>
<path d="M18.625 18.958V17.4997C18.625 16.7261 18.9323 15.9843 19.4793 15.4373C20.0263 14.8903 20.7681 14.583 21.5417 14.583H24.4583" stroke="#B05B09" stroke-width="1.05" stroke-linecap="round" stroke-linejoin="round"/>
</g>
<defs>
<clipPath id="clip0_3839_40421">
<rect width="35" height="35" fill="white" transform="translate(14.25)"/>
</clipPath>
</defs>
</svg>
