<svg width="22" height="22" viewBox="0 0 22 22" fill="none" xmlns="http://www.w3.org/2000/svg">
<g clip-path="url(#clip0_6212_9147)">
<path d="M13.0475 17.416C13.8404 17.416 14.2593 18.3547 13.7304 18.945C13.3868 19.3295 12.9658 19.6371 12.4951 19.8475C12.0243 20.0579 11.5144 20.1664 10.9987 20.166C10.4831 20.1664 9.97318 20.0579 9.50242 19.8475C9.03165 19.6371 8.61068 19.3295 8.26708 18.945C7.76108 18.3803 8.12225 17.4976 8.84825 17.4224L8.94908 17.4169L13.0475 17.416Z" fill="white"/>
<path d="M11.0017 1.83398C12.2466 1.83398 13.2989 2.66173 13.6372 3.79657L13.6793 3.95332L13.6867 3.99273C14.6972 4.56281 15.5583 5.36416 16.1994 6.33115C16.8406 7.29814 17.2436 8.40326 17.3753 9.55598L17.401 9.81907L17.4184 10.084V12.7707L17.4377 12.8954C17.5632 13.5708 17.9369 14.1748 18.4854 14.5885L18.6385 14.6957L18.787 14.7865C19.5753 15.2329 19.3003 16.4053 18.4414 16.4952L18.3351 16.5007H3.66841C2.72608 16.5007 2.39699 15.2503 3.21649 14.7865C3.56577 14.5888 3.86755 14.3171 4.10065 13.9904C4.33376 13.6637 4.49253 13.29 4.56583 12.8954L4.58508 12.7643L4.58599 10.0418C4.64188 8.84454 4.99039 7.67921 5.601 6.64783C6.21162 5.61645 7.06573 4.75046 8.08857 4.12565L8.31591 3.99182L8.32508 3.9524C8.45474 3.40426 8.74944 2.90909 9.1694 2.53371C9.58937 2.15833 10.1144 1.92082 10.6736 1.85323L10.8404 1.83765L11.0017 1.83398Z" fill="white"/>
</g>
<defs>
<clipPath id="clip0_6212_9147">
<rect width="22" height="22" fill="white"/>
</clipPath>
</defs>
</svg>
