<svg width="117" height="78" viewBox="0 0 117 78" fill="none" xmlns="http://www.w3.org/2000/svg">
<path d="M1.5 50.9998C1.5 50.9998 16.7821 32.7085 30.5 29.9998C40.931 27.9402 46.9876 35.0923 57.5 33.4998C73.7778 31.034 76.8958 13.4208 93 9.99988C101.977 8.09295 116 9.99983 116 9.99983" stroke="#B05B09" stroke-width="2" stroke-linecap="round"/>
<path d="M31 29.8475C17.2821 32.5562 2 50.8475 2 50.8475V78H116.5V9.84749C116.5 9.84749 102.477 7.9406 93.5 9.84754C77.3958 13.2685 74.2778 30.8817 58 33.3475C47.4875 34.9399 41.431 27.7878 31 29.8475Z" fill="url(#paint0_linear_6212_10327)"/>
<path d="M46.78 8.67C46.7133 8.67 46.6567 8.64667 46.61 8.6C46.5633 8.55333 46.54 8.49667 46.54 8.43V6.48H44.62C44.5533 6.48 44.4967 6.45667 44.45 6.41C44.4033 6.36333 44.38 6.30667 44.38 6.24V5.71C44.38 5.63667 44.4033 5.58 44.45 5.54C44.4967 5.49333 44.5533 5.47 44.62 5.47H46.54V3.57C46.54 3.50333 46.5633 3.44667 46.61 3.4C46.6567 3.35333 46.7133 3.33 46.78 3.33H47.36C47.4333 3.33 47.49 3.35333 47.53 3.4C47.5767 3.44667 47.6 3.50333 47.6 3.57V5.47H49.52C49.5867 5.47 49.6433 5.49333 49.69 5.54C49.7367 5.58 49.76 5.63667 49.76 5.71V6.24C49.76 6.30667 49.7367 6.36333 49.69 6.41C49.6433 6.45667 49.5867 6.48 49.52 6.48H47.6V8.43C47.6 8.49667 47.5767 8.55333 47.53 8.6C47.49 8.64667 47.4333 8.67 47.36 8.67H46.78ZM50.608 9C50.5413 9 50.4846 8.97667 50.438 8.93C50.3913 8.88333 50.368 8.82667 50.368 8.76V8.25C50.368 8.19 50.3813 8.12 50.408 8.04C50.4413 7.95333 50.5113 7.86667 50.618 7.78L52.198 6.21C52.638 5.86333 52.9913 5.57 53.258 5.33C53.5313 5.08333 53.728 4.86 53.848 4.66C53.9746 4.45333 54.038 4.25 54.038 4.05C54.038 3.75 53.9546 3.50667 53.788 3.32C53.628 3.13333 53.3713 3.04 53.018 3.04C52.7846 3.04 52.588 3.09 52.428 3.19C52.268 3.28333 52.1413 3.41 52.048 3.57C51.9613 3.73 51.9013 3.90667 51.868 4.1C51.8546 4.18667 51.818 4.24667 51.758 4.28C51.698 4.31333 51.638 4.33 51.578 4.33H50.688C50.628 4.33 50.578 4.31 50.538 4.27C50.498 4.23 50.478 4.18333 50.478 4.13C50.4846 3.84333 50.5446 3.56667 50.658 3.3C50.7713 3.02667 50.9346 2.78667 51.148 2.58C51.368 2.36667 51.6346 2.19667 51.948 2.07C52.2613 1.94333 52.6146 1.88 53.008 1.88C53.5613 1.88 54.018 1.97333 54.378 2.16C54.7446 2.34667 55.018 2.6 55.198 2.92C55.3846 3.24 55.478 3.6 55.478 4C55.478 4.31333 55.418 4.60333 55.298 4.87C55.178 5.13 55.0046 5.38333 54.778 5.63C54.5513 5.87 54.278 6.11667 53.958 6.37L52.538 7.81H55.388C55.4613 7.81 55.518 7.83333 55.558 7.88C55.6046 7.92 55.628 7.97667 55.628 8.05V8.76C55.628 8.82667 55.6046 8.88333 55.558 8.93C55.518 8.97667 55.4613 9 55.388 9H50.608ZM57.2094 9C57.0694 9 56.9994 8.93333 56.9994 8.8C56.9994 8.76 57.0127 8.72333 57.0394 8.69L61.9694 2.19C62.016 2.13 62.0627 2.08333 62.1094 2.05C62.156 2.01667 62.2227 2 62.3094 2H62.8394C62.9794 2 63.0494 2.06667 63.0494 2.2C63.0494 2.24 63.036 2.27667 63.0094 2.31L58.0794 8.81C58.0327 8.87 57.986 8.91667 57.9394 8.95C57.8994 8.98333 57.8327 9 57.7394 9H57.2094ZM62.0194 9.06C61.5727 9.06 61.2194 8.93667 60.9594 8.69C60.6994 8.44333 60.556 8.12 60.5294 7.72C60.5227 7.54667 60.5194 7.39667 60.5194 7.27C60.5194 7.14333 60.5227 6.98667 60.5294 6.8C60.556 6.4 60.6927 6.07667 60.9394 5.83C61.1927 5.58333 61.5527 5.46 62.0194 5.46C62.4927 5.46 62.8527 5.58333 63.0994 5.83C63.3527 6.07667 63.4894 6.4 63.5094 6.8C63.5227 6.98667 63.5294 7.14333 63.5294 7.27C63.5294 7.39667 63.5227 7.54667 63.5094 7.72C63.4894 8.12 63.346 8.44333 63.0794 8.69C62.8194 8.93667 62.466 9.06 62.0194 9.06ZM62.0194 8.28C62.166 8.28 62.2794 8.25 62.3594 8.19C62.446 8.13 62.5094 8.05333 62.5494 7.96C62.5894 7.86667 62.6094 7.77333 62.6094 7.68C62.6227 7.51333 62.6294 7.37333 62.6294 7.26C62.6294 7.14 62.6227 7.00333 62.6094 6.85C62.6027 6.69667 62.556 6.55667 62.4694 6.43C62.3827 6.29667 62.2327 6.23 62.0194 6.23C61.8127 6.23 61.666 6.29667 61.5794 6.43C61.4927 6.55667 61.4427 6.69667 61.4294 6.85C61.4227 7.00333 61.4194 7.14 61.4194 7.26C61.4194 7.37333 61.4227 7.51333 61.4294 7.68C61.4427 7.77333 61.466 7.86667 61.4994 7.96C61.5394 8.05333 61.5994 8.13 61.6794 8.19C61.766 8.25 61.8794 8.28 62.0194 8.28ZM58.0294 5.52C57.5827 5.52 57.2294 5.40333 56.9694 5.17C56.7094 4.93667 56.566 4.62 56.5394 4.22C56.5327 4.04667 56.5294 3.89667 56.5294 3.77C56.5294 3.63667 56.5327 3.47667 56.5394 3.29C56.566 2.89 56.7027 2.56667 56.9494 2.32C57.2027 2.07333 57.5627 1.95 58.0294 1.95C58.5027 1.95 58.8627 2.07333 59.1094 2.32C59.3627 2.56667 59.4994 2.89 59.5194 3.29C59.5327 3.47667 59.5394 3.63667 59.5394 3.77C59.5394 3.89667 59.5327 4.04667 59.5194 4.22C59.4994 4.62 59.356 4.93667 59.0894 5.17C58.8294 5.40333 58.476 5.52 58.0294 5.52ZM58.0294 4.78C58.176 4.78 58.2894 4.75 58.3694 4.69C58.456 4.63 58.5194 4.55333 58.5594 4.46C58.5994 4.36667 58.6194 4.27 58.6194 4.17C58.6327 4.00333 58.6394 3.86333 58.6394 3.75C58.6394 3.63 58.6327 3.49333 58.6194 3.34C58.6127 3.18667 58.566 3.04667 58.4794 2.92C58.3927 2.79333 58.2427 2.73 58.0294 2.73C57.8227 2.73 57.676 2.79333 57.5894 2.92C57.5027 3.04667 57.456 3.18667 57.4494 3.34C57.4427 3.49333 57.4394 3.63 57.4394 3.75C57.4394 3.86333 57.4427 4.00333 57.4494 4.17C57.456 4.27 57.476 4.36667 57.5094 4.46C57.5494 4.55333 57.6094 4.63 57.6894 4.69C57.776 4.75 57.8894 4.78 58.0294 4.78Z" fill="#B05B09"/>
<path d="M53 17L55 15M55 15L57 17M55 15V22" stroke="#B05B09" stroke-linecap="round" stroke-linejoin="round"/>
<defs>
<linearGradient id="paint0_linear_6212_10327" x1="59.5" y1="-16" x2="81.5" y2="43.5" gradientUnits="userSpaceOnUse">
<stop stop-color="#B35E0D"/>
<stop offset="1" stop-color="white" stop-opacity="0"/>
</linearGradient>
</defs>
</svg>
